<svg width="114" height="33" viewBox="0 0 114 33" fill="none" xmlns="http://www.w3.org/2000/svg">
    <g clip-path="url(#clip0)">
        <path
            d="M48.5 22H49.5V23.4H51V24.3H49.5V27.8C49.5 29.1 49.9 29.3 50.8 29.3C50.9 29.3 51.1 29.3 51.1 29.3V30.2C51.1 30.2 50.8 30.2 50.5 30.2C49.1 30.2 48.5 29.3 48.5 27.8V24.3H47.7V23.4H48.5V22Z"
            fill="#4A494A" />
        <path
            d="M55.1 23.3C57.1 23.3 58.3 24.7 58.3 26.7C58.3 26.7 58.3 26.9 58.3 27H52.8C52.8 28.5 53.8 29.4 55.3 29.4C56.5 29.4 57.1 28.8 57.4 28.4L58.1 28.9C57.7 29.5 56.8 30.4 55.3 30.4C53.2 30.4 51.8 29 51.8 26.9C51.8 24.7 53.3 23.3 55.1 23.3ZM57.3 26.3C57.2 24.9 56.2 24.2 55.1 24.2C54 24.2 53 25 53 26.3H57.3Z"
            fill="#4A494A" />
        <path
            d="M64.8 25.1C64.5 24.8 63.8 24.2 62.8 24.2C61.4 24.2 60.4 25.3 60.4 26.8C60.4 28.2 61.5 29.4 62.9 29.4C64 29.4 64.7 28.8 64.9 28.5L65.2 29.4C64.9 29.7 64.1 30.4 62.8 30.4C60.8 30.4 59.3 28.9 59.3 26.9C59.3 24.9 60.8 23.4 62.8 23.4C64 23.4 64.9 24 65.2 24.3L64.8 25.1Z"
            fill="#4A494A" />
        <path
            d="M71.9 26V30.2H70.9V26C70.9 24.9 70.2 24.3 69.3 24.3C68.2 24.3 67.5 25.1 67.5 26.2V30.3H66.5V21H67.5V24.6C67.8 24 68.6 23.5 69.5 23.5C71.1 23.3 71.9 24.4 71.9 26Z"
            fill="#4A494A" />
        <path
            d="M79.1 26V30.2H78.1V26C78.1 24.9 77.4 24.3 76.5 24.3C75.4 24.3 74.7 25.1 74.7 26.2V30.3H73.7V23.6H74.7V24.6C75 24 75.8 23.5 76.7 23.5C78.3 23.3 79.1 24.4 79.1 26Z"
            fill="#4A494A" />
        <path
            d="M84 23.3C86.1 23.3 87.6 24.8 87.6 26.8C87.6 28.8 86 30.3 84 30.3C81.9 30.3 80.4 28.8 80.4 26.8C80.4 24.8 81.9 23.3 84 23.3ZM84 29.4C85.5 29.4 86.5 28.3 86.5 26.8C86.5 25.3 85.4 24.2 84 24.2C82.5 24.2 81.5 25.3 81.5 26.8C81.5 28.3 82.5 29.4 84 29.4Z"
            fill="#4A494A" />
        <path d="M88.9 20.8H89.9V30.1H88.9V20.8Z" fill="#4A494A" />
        <path
            d="M94.8 23.3C96.9 23.3 98.4 24.8 98.4 26.8C98.4 28.8 96.9 30.3 94.8 30.3C92.7 30.3 91.2 28.8 91.2 26.8C91.2 24.8 92.8 23.3 94.8 23.3ZM94.8 29.4C96.3 29.4 97.3 28.3 97.3 26.8C97.3 25.3 96.2 24.2 94.8 24.2C93.3 24.2 92.3 25.3 92.3 26.8C92.3 28.3 93.3 29.4 94.8 29.4Z"
            fill="#4A494A" />
        <path
            d="M100.4 31.2C100.7 31.4 101.5 31.8 102.5 31.8C103.8 31.8 104.9 31.3 104.9 29.8V29.2C104.7 29.4 104 30.4 102.5 30.4C100.5 30.4 99.2 28.9 99.2 26.9C99.2 24.8 100.6 23.4 102.5 23.4C103.9 23.4 104.7 24.3 104.9 24.7V23.6H105.9V29.4C105.9 31.9 104.4 32.8 102.5 32.8C101.6 32.8 100.6 32.5 100.1 32.1L100.4 31.2ZM102.6 24.2C101.3 24.2 100.3 25.3 100.3 26.8C100.3 28.4 101.3 29.4 102.6 29.4C104 29.4 104.9 28.3 104.9 26.8C105 25.2 103.9 24.2 102.6 24.2Z"
            fill="#4A494A" />
        <path d="M108.7 32.5L109.7 30.1L106.9 23.5H108L110.2 28.9L112.3 23.5H113.4L109.7 32.5H108.7Z" fill="#4A494A" />
        <path
            d="M73.6 15.9C73.4 16.1 73 16.3 72.6 16.3C71.9 16.3 71.4 15.9 71.4 15.3C71.4 14.9 71.7 14.6 72 14.4C71.8 14.2 71.6 14 71.6 13.7C71.6 13.3 71.9 12.9 72.5 12.9C73.1 12.9 73.4 13.2 73.4 13.7C73.4 14.1 73.1 14.4 72.6 14.6L73.4 15.4C73.5 15.2 73.6 15 73.6 14.7H74C74 15.1 74 15.4 73.7 15.7L74.1 16L74 16.3L73.6 15.9ZM73.4 15.7L72.3 14.7C72.1 14.8 71.8 15 71.8 15.3C71.8 15.7 72.2 16 72.6 16C73 16 73.2 15.8 73.4 15.7ZM72.6 14.4C73 14.2 73.2 14 73.2 13.7C73.2 13.4 73 13.2 72.6 13.2C72.3 13.2 72 13.4 72 13.7C72.1 14 72.3 14.2 72.6 14.4Z"
            fill="#4A494A" />
        <path
            d="M72.9 18C71 18 69.4 16.5 69.4 14.6C69.4 12.7 71 11.2 72.9 11.2C74.8 11.2 76.4 12.7 76.4 14.6C76.4 16.5 74.8 18 72.9 18ZM72.9 11.7C71.3 11.7 69.9 13 69.9 14.6C69.9 16.2 71.2 17.5 72.9 17.5C74.6 17.5 75.9 16.2 75.9 14.6C75.8 13 74.5 11.7 72.9 11.7Z"
            fill="#4A494A" />
        <path d="M55.5 5.1H50.3V18H47.8V5.1H42.6V3H55.6V5.1H55.5Z" fill="#4A494A" />
        <path
            d="M63.5 3H57.6V18H60.1V12.5V12.3V10.2V5.1H63.1C65.3 5.1 66.3 6 66.3 7.7C66.3 9.4 65.3 10.3 63.1 10.3H61.9V12.4H63.5C66.8 12.4 68.9 10.6 68.9 7.7C68.9 4.7 66.8 3 63.5 3Z"
            fill="#4A494A" />
        <path
            d="M85.1 3H79.2V18H81.7V12.5V12.3V10.2V5.1H84.7C86.9 5.1 87.9 6 87.9 7.7C87.9 9.4 86.9 10.3 84.7 10.3H83.5V12.4H85.1C88.4 12.4 90.5 10.6 90.5 7.7C90.4 4.7 88.4 3 85.1 3Z"
            fill="#4A494A" />
        <path
            d="M35.4 16.6L27.8 31.4C27.7 31.6 27.5 31.7 27.2 31.7H17.6C17.2 31.7 16.9 31.3 17 30.9L17.6 28.8C17.7 28.5 17.9 28.3 18.2 28.3H25.1C25.3 28.3 25.6 28.2 25.7 28L31.6 16.5C31.8 16 31.8 15.5 31.6 15L27.5 8.3C26.9 7.2 25.3 7.1 24.6 8.2L12.1 31.1C11.4 32.1 10 32.1 9.3 31.1L0.3 16.8C-0.0999997 16.3 -0.0999997 15.6 0.2 15L8.9 0.3C9.1 0.1 9.3 0 9.5 0H20.5C21 0 21.3 0.5 21.1 0.9L20 3C19.9 3.2 19.7 3.3 19.4 3.3H11.4C11.2 3.3 11 3.4 10.9 3.6L4.2 14.9C3.9 15.5 3.9 16.2 4.3 16.7L9.2 25.3C9.9 26.3 11.3 26.2 12 25.3L25 1.8C25.7 0.7 27.3 0.8 27.9 1.9L35.4 15.1C35.6 15.6 35.6 16.2 35.4 16.6Z"
            fill="#FCB644" />
        <path
            d="M36.9 16.6L29.3 31.4C29.2 31.6 29 31.7 28.7 31.7H19.1C18.7 31.7 18.4 31.3 18.5 30.9L19.1 28.8C19.2 28.5 19.4 28.3 19.7 28.3H26.6C26.8 28.3 27.1 28.2 27.2 28L33.1 16.5C33.3 16 33.3 15.5 33.1 15L29 8.3C28.4 7.2 26.8 7.1 26.1 8.2L13.7 31.1C13 32.1 11.6 32.1 10.9 31.1L1.9 16.8C1.5 16.3 1.5 15.6 1.8 15L10.5 0.2C10.6 0.1 10.8 0 11.1 0H22.1C22.6 0 22.9 0.5 22.7 0.9L21.5 3C21.4 3.2 21.2 3.3 20.9 3.3H12.9C12.7 3.3 12.5 3.4 12.4 3.6L5.8 14.9C5.5 15.5 5.5 16.2 5.9 16.7L10.8 25.3C11.5 26.3 12.9 26.2 13.6 25.3L26.6 1.9C27.3 0.8 28.9 0.9 29.5 2L37 15.2C37.2 15.6 37.2 16.2 36.9 16.6Z"
            fill="#12A9E0" />
    </g>
    <defs>
        <clipPath id="clip0">
            <rect width="113.4" height="32.6" fill="white" />
        </clipPath>
    </defs>
</svg>